<svg id="SvgjsSvg1001" width="288" height="288" xmlns="http://www.w3.org/2000/svg" version="1.1" xmlns:xlink="http://www.w3.org/1999/xlink" xmlns:svgjs="http://svgjs.com/svgjs"><defs id="SvgjsDefs1002"></defs><g id="SvgjsG1008" transform="matrix(1,0,0,1,0,0)"><svg xmlns="http://www.w3.org/2000/svg" width="288" height="288" version="1.0" viewBox="0 0 512 512"><g transform="matrix(.1 0 0 -.1 0 512)" fill="#f9ca24" class="color000 svgShape"><path d="M2965 5103 c-244 -88 -275 -425 -50 -544 l45 -24 0 -87 0 -88 -216 0c-128 0 -223 -4 -235 -10 -41 -22 -49 -60 -49 -230 l0 -160 -210 0 -210 0 0
335 0 335 -29 32 -29 33 -134 3 -133 4 -28 49 c-90 162 -332 192 -465 56 -154
-157 -92 -419 115 -493 52 -18 140 -17 196 2 56 19 129 81 163 140 l26 44 59
0 59 0 0 -270 0 -270 -144 0 c-79 0 -168 -5 -197 -10 -159 -30 -299 -170 -329
-329 -6 -31 -10 -239 -10 -497 l0 -444 -205 0 -205 0 0 419 0 419 32 13 c49
20 106 76 136 133 37 71 38 189 3 259 -117 227 -425 227 -542 0 -35 -70 -34
-188 3 -259 30 -57 87 -113 136 -133 l32 -13 0 -477 c0 -454 1 -477 20 -508
28 -47 64 -53 343 -53 l247 0 0 -110 0 -109 -451 -3 -451 -3 -29 -33 -29 -32
0 -270 0 -270 -39 -19 c-21 -11 -58 -42 -83 -70 -132 -146 -87 -370 92 -463
65 -33 195 -33 260 0 179 93 224 317 92 463 -25 28 -62 59 -83 70 l-39 19 0
205 0 205 380 0 380 0 0 -150 0 -150 -97 0 c-104 0 -127 -9 -152 -57 -7 -15
-11 -138 -11 -387 l0 -366 -39 -19 c-21 -11 -58 -42 -83 -70 -132 -146 -87
-370 92 -463 65 -33 195 -33 260 0 179 93 224 317 92 463 -25 28 -62 59 -83
70 l-39 19 0 305 0 305 30 0 c26 0 30 -4 35 -37 31 -180 164 -321 334 -353 31
-6 242 -10 507 -10 l454 0 0 -100 0 -100 -192 0 c-305 0 -308 -2 -308 -230
l-1 -145 -51 -30 c-206 -119 -188 -428 31 -528 64 -30 178 -30 242 0 219 100
237 409 31 528 l-51 30 -1 88 0 87 216 0 c128 0 223 4 235 10 41 22 49 60 49
230 l0 160 259 0 259 0 4 -146 3 -146 33 -29 c44 -40 93 -40 133 0 l29 29 0
146 0 146 94 0 c172 0 267 33 360 126 89 89 126 189 126 340 l0 74 190 0 190
0 19 -38 c50 -96 153 -156 267 -156 113 1 204 55 259 155 27 48 30 63 30 139
0 70 -4 93 -23 130 -31 60 -83 112 -140 141 -66 34 -197 34 -260 1 -54 -29
-113 -87 -135 -135 l-18 -37 -189 0 -190 0 0 280 0 280 445 0 445 0 32 29 33
29 3 276 3 276 38 20 c21 10 58 41 83 69 132 146 87 370 -92 463 -37 19 -60
23 -130 23 -70 0 -93 -4 -130 -23 -179 -93 -224 -317 -92 -463 25 -28 62 -59
83 -70 l39 -19 0 -205 0 -205 -380 0 -380 0 0 425 0 425 123 0 c150 0 191 10
217 53 18 29 20 52 20 269 l0 238 39 19 c21 11 58 42 83 70 132 146 87 370
-92 463 -37 19 -60 23 -130 23 -70 0 -93 -4 -130 -23 -179 -93 -224 -317 -92
-463 25 -28 62 -59 83 -70 l39 -19 0 -180 0 -180 -94 0 -94 0 -46 64 c-51 72
-121 128 -199 160 -50 20 -68 21 -539 24 l-488 3 0 99 0 100 193 0 c304 0 307
2 307 230 l1 145 51 30 c167 96 196 327 58 465 -80 80 -203 109 -305 73z m165
-218 c35 -36 34 -95 -3 -132 -60 -61 -162 -19 -162 66 0 89 101 130 165 66z
m-1644 -207 c51 -24 59 -105 15 -149 -44 -44 -125 -36 -149 15 -20 42 -22 58
-7 92 23 56 79 73 141 42z m2797 -252 c48 -45 46 -111 -6 -150 -70 -52 -174
15 -153 100 11 41 53 74 96 74 25 0 45 -8 63 -24z m-3566 -559 c64 -57 20
-167 -67 -167 -61 0 -107 56 -96 114 15 77 105 106 163 53z m2908 -126 c51
-23 93 -65 116 -116 18 -38 19 -92 19 -1065 0 -973 -1 -1027 -19 -1065 -23
-51 -65 -93 -116 -116 -38 -18 -92 -19 -1065 -19 -973 0 -1027 1 -1065 19 -51
23 -93 65 -116 116 -18 38 -19 92 -19 1065 0 973 1 1027 19 1065 23 51 65 93
116 116 38 18 92 19 1065 19 973 0 1027 -1 1065 -19z m1258 -315 c48 -45 46
-111 -6 -150 -70 -52 -174 15 -153 100 11 41 53 74 96 74 25 0 45 -8 63 -24z
m-192 -1555 c77 -77 -6 -199 -106 -157 -67 28 -79 114 -23 161 42 35 91 34
129 -4z m-4332 -430 c73 -52 33 -171 -58 -171 -112 1 -136 147 -31 189 29 11
56 6 89 -18z m700 -700 c73 -52 33 -171 -58 -171 -112 1 -136 147 -31 189 29
11 56 6 89 -18z m1063 -370 c67 -60 28 -166 -62 -166 -105 0 -132 146 -35 186
37 15 64 9 97 -20z" fill="#f9ca24" class="color000 svgShape"></path><path d="M2405 3629 c-147 -22 -210 -59 -208 -123 1 -47 19 -75 57 -91 27 -11
43 -11 106 2 112 23 307 22 400 -1 331 -84 572 -325 656 -656 14 -54 19 -110
19 -200 0 -90 -5 -146 -19 -200 -84 -331 -325 -572 -656 -656 -104 -26 -296
-26 -400 0 -331 84 -572 325 -656 656 -14 57 -19 107 -18 205 1 151 21 238 84
375 22 48 40 96 40 108 0 52 -50 102 -103 102 -54 0 -111 -81 -164 -235 -176
-512 44 -1063 523 -1312 649 -338 1441 62 1559 788 94 584 -308 1138 -896
1234 -101 16 -228 18 -324 4z" fill="#f9ca24" class="color000 svgShape"></path><path d="M1852 3365c-44-19-67-73-52-120 23-69 109-88 161-36 48 49 35 126-26 156-39 18-41 18-83 0zM2524 3250c-44-18-64-58-64-130l0-68-55-31c-57-32-109-94-132-154-21-57-16-156 11-214 39-82 90-124 218-177 62-26 123-57 135-68 30-28 31-86 3-116-33-35-63-37-144-7-52 19-83 25-105 20-72-16-97-113-42-164 16-15 47-33 70-41l41-13 0-78c0-72 2-81 28-109 17-19 40-33 63-36 31-5 42-1 70 24 32 28 34 34 37 106l4 75 55 31c55 31 108 93 130 153 21 57 16 156-11 214-39 82-90 124-218 177-62 26-123 57-135 68-30 28-31 86-3 116 33 35 63 37 144 7 52-19 83-25 105-20 72 16 97 113 42 164-16 15-47 33-69 40l-40 14-4 84c-3 81-4 86-36 114-33 29-60 35-98 19zM3642 995c-64-28-75-114-20-160 63-53 158-11 158 70 0 49-15 74-55 91-41 17-42 17-83-1zM3932 995c-64-28-75-114-20-160 28-24 36-25 149-25l119 0 0-60c0-33-4-60-8-60-22 0-101-64-130-104-143-198-2-470 243-470 120 0 210 56 265 166 35 71 40 154 14 231-20 59-92 140-144 163l-40 18 0 126c0 185-7 190-253 190-118-1-171-5-195-15zm398-500c35-18 50-43 50-85 0-44-26-78-69-91-101-30-170 98-89 166 34 29 66 32 108 10z" fill="#f9ca24" class="color000 svgShape"></path></g></svg></g></svg>